<svg width="112" height="112" viewBox="0 0 112 112" fill="none" xmlns="http://www.w3.org/2000/svg">
	<!-- technologies -->
	<g id='vscode'>
	<defs>
		<clipPath id="clip2_5879">
			<rect rx="0.000000" width="111.000000" height="111.000000" transform="translate(0.500000 0.500000)" fill="white" fill-opacity="0"/>
		</clipPath>
	</defs>
	<rect rx="0.000000" width="111.000000" height="111.000000" transform="translate(0.500000 0.500000)" fill="#FFFFFF" fill-opacity="0"/>
	<g clip-path="url(#clip2_5879)">
		<path d="M101.53 17.6L81.35 7.88C80.21 7.33 78.93 7.15 77.68 7.37C76.43 7.58 75.28 8.17 74.39 9.07L8.32 69.3C7.52 70.02 7.04 71.04 6.99 72.12C6.94 73.2 7.32 74.26 8.04 75.06C8.13 75.15 8.22 75.25 8.31 75.33L13.71 80.23C14.41 80.87 15.32 81.24 16.27 81.29C17.22 81.33 18.16 81.04 18.92 80.46L98.49 20.12C99.09 19.66 99.81 19.38 100.56 19.31C101.31 19.24 102.07 19.38 102.74 19.72C103.42 20.05 103.99 20.57 104.39 21.21C104.78 21.85 105 22.59 105 23.35L105 23.11C105 21.96 104.67 20.83 104.06 19.86C103.44 18.88 102.57 18.1 101.53 17.6Z" fill="#0065A9" fill-opacity="1.000000" fill-rule="nonzero"/>
		<path d="M101.53 94.39L81.35 104.11C80.21 104.66 78.93 104.84 77.68 104.63C76.43 104.41 75.28 103.82 74.39 102.93L8.32 42.7C7.52 41.97 7.04 40.95 6.99 39.87C6.94 38.79 7.32 37.73 8.04 36.93C8.13 36.84 8.22 36.75 8.31 36.66L13.71 31.76C14.41 31.12 15.32 30.74 16.28 30.7C17.23 30.66 18.17 30.95 18.93 31.53L98.49 91.87C99.09 92.33 99.81 92.61 100.56 92.68C101.31 92.75 102.07 92.61 102.74 92.27C103.42 91.94 103.99 91.42 104.39 90.78C104.78 90.14 105 89.4 105 88.64L105 88.9C104.99 90.04 104.66 91.17 104.05 92.14C103.44 93.11 102.57 93.89 101.53 94.39Z" fill="#007ACC" fill-opacity="1.000000" fill-rule="nonzero"/>
		<path d="M81.35 104.11C80.21 104.66 78.93 104.84 77.68 104.63C76.43 104.41 75.28 103.82 74.39 102.93C74.89 103.42 75.53 103.76 76.22 103.89C76.91 104.03 77.63 103.96 78.28 103.69C78.94 103.42 79.49 102.96 79.89 102.37C80.28 101.79 80.49 101.1 80.5 100.39L80.5 11.6C80.5 10.89 80.29 10.2 79.89 9.61C79.5 9.02 78.94 8.56 78.28 8.29C77.63 8.02 76.9 7.94 76.21 8.08C75.51 8.22 74.87 8.56 74.37 9.07C75.27 8.17 76.42 7.58 77.67 7.36C78.91 7.15 80.19 7.33 81.34 7.88L101.51 17.58C102.55 18.08 103.43 18.86 104.05 19.84C104.67 20.81 104.99 21.94 105 23.1L105 88.9C105 90.05 104.67 91.18 104.06 92.15C103.44 93.13 102.57 93.91 101.53 94.41L81.35 104.11Z" fill="#1F9CF0" fill-opacity="1.000000" fill-rule="nonzero"/>
	</g>
	</g>

	<g id="tailwind">
	<defs>
		<clipPath id="clip2_5877">
			<rect rx="0.000000" width="130.000000" height="130.000000" transform="translate(0.500000 0.500000)" fill="white" fill-opacity="0"/>
		</clipPath>
	</defs>
	<rect rx="0.000000" width="130.000000" height="130.000000" transform="translate(0.500000 0.500000)" fill="#FFFFFF" fill-opacity="0"/>
	<g clip-path="url(#clip2_5877)">
		<path d="M36.84 56.08C40.66 40.8 50.21 33.15 65.5 33.15C88.42 33.15 91.29 50.35 102.75 53.21C110.39 55.12 117.08 52.26 122.81 44.62C118.99 59.9 109.44 67.54 94.15 67.54C71.23 67.54 68.36 50.35 56.9 47.48C49.26 45.57 42.57 48.44 36.84 56.08ZM8.18 90.47C12 75.18 21.56 67.54 36.84 67.54C59.76 67.54 62.63 84.74 74.09 87.6C81.73 89.51 88.42 86.65 94.15 79C90.33 94.29 80.78 101.93 65.5 101.93C42.57 101.93 39.7 84.74 28.24 81.87C20.6 79.96 13.91 82.83 8.18 90.47Z" fill="#44A8B3" fill-opacity="1.000000" fill-rule="nonzero"/>
	</g>
	</g>

	<g id="sass" transform="translate(0,8)">
	<defs>
		<clipPath id="clip2_5872">
			<rect rx="0.000000" width="116.000000" height="86.000000" transform="translate(0.500000 0.500000)" fill="white" fill-opacity="0"/>
		</clipPath>
	</defs>
	<rect rx="0.000000" width="116.000000" height="86.000000" transform="translate(0.500000 0.500000)" fill="#FFFFFF" fill-opacity="0"/>
	<g clip-path="url(#clip2_5872)">
		<path d="M100.67 50.07C96.6 50.09 93.06 51.06 90.1 52.5C89.01 50.37 87.92 48.47 87.73 47.07C87.52 45.44 87.26 44.45 87.52 42.51C87.78 40.56 88.93 37.8 88.9 37.58C88.88 37.37 88.65 36.38 86.3 36.36C83.96 36.34 81.94 36.8 81.7 37.41C81.47 38.03 81.02 39.42 80.72 40.86C80.32 42.97 76.03 50.51 73.58 54.47C72.79 52.92 72.11 51.57 71.96 50.49C71.75 48.87 71.49 47.87 71.75 45.93C72.01 43.99 73.16 41.22 73.14 41.01C73.11 40.8 72.88 39.8 70.54 39.78C68.19 39.76 66.17 40.23 65.93 40.84C65.7 41.45 65.44 42.89 64.95 44.28C64.46 45.68 58.77 58.27 57.28 61.52C56.68 62.84 56.05 64.14 55.38 65.43C55.38 65.43 55.36 65.5 55.3 65.6C55.09 66.01 54.88 66.41 54.66 66.81L54.66 66.83C54.34 67.4 54 67.93 53.83 67.93C53.7 67.93 53.47 66.4 53.87 64.33C54.72 59.96 56.75 53.16 56.73 52.92C56.73 52.8 57.11 51.61 55.41 51C53.74 50.39 53.15 51.4 53 51.4C52.85 51.4 52.74 51.76 52.74 51.76C52.74 51.76 54.6 44.11 49.2 44.11C45.84 44.11 41.19 47.77 38.89 51.06C36.27 52.48 33.66 53.89 31.05 55.31C29.79 56.01 28.49 56.71 27.28 57.36C27.19 57.28 27.1 57.17 27.02 57.09C20.5 50.18 8.44 45.3 8.95 36.02C9.14 32.64 10.31 23.77 32.11 12.99C50.06 4.22 64.33 6.65 66.81 12.04C70.34 19.73 59.16 34.01 40.62 36.08C33.54 36.87 29.83 34.16 28.9 33.15C27.91 32.09 27.77 32.03 27.4 32.24C26.81 32.56 27.19 33.51 27.4 34.06C27.96 35.49 30.24 38.03 34.09 39.27C37.5 40.37 45.79 40.99 55.83 37.14C67.06 32.83 75.84 20.85 73.26 10.81C70.68 0.63 53.64 -2.73 37.5 2.95C27.91 6.33 17.52 11.66 10.04 18.59C1.15 26.83 -0.26 33.99 0.32 36.99C2.38 47.64 17.2 54.57 23.12 59.71C22.82 59.88 22.54 60.02 22.31 60.15C19.35 61.61 8.05 67.46 5.24 73.65C2.04 80.67 5.75 85.7 8.2 86.37C15.81 88.46 23.63 84.7 27.83 78.49C32.03 72.28 31.52 64.21 29.58 60.51C29.56 60.47 29.53 60.42 29.49 60.38C30.26 59.94 31.05 59.47 31.81 59.03C33.22 58.2 34.65 57.41 36.1 56.64C35.37 58.61 34.84 60.95 34.58 64.33C34.26 68.31 35.91 73.46 38.06 75.49C39.02 76.38 40.15 76.4 40.87 76.4C43.39 76.4 44.52 74.33 45.77 71.88C47.31 68.88 48.69 65.39 48.69 65.39C48.69 65.39 46.97 74.81 51.65 74.81C53.36 74.81 55.09 72.62 55.85 71.5L55.85 71.52C55.85 71.52 55.9 71.45 55.98 71.31C56.15 71.03 56.26 70.86 56.26 70.86L56.26 70.82C56.94 69.64 58.47 66.95 60.75 62.5C63.69 56.75 66.53 49.56 66.53 49.56C66.53 49.56 66.79 51.32 67.66 54.23C68.17 55.95 69.24 57.83 70.09 59.64C69.41 60.59 68.98 61.12 68.98 61.12L69 61.14C68.45 61.86 67.85 62.64 67.19 63.4C64.87 66.15 62.1 69.3 61.71 70.21C61.26 71.29 61.37 72.07 62.22 72.7C62.84 73.17 63.95 73.23 65.08 73.17C67.17 73.02 68.64 72.51 69.36 72.19C70.49 71.79 71.81 71.18 73.05 70.27C75.33 68.6 76.72 66.21 76.59 63.07C76.52 61.33 75.95 59.6 75.24 57.97C75.46 57.68 75.65 57.38 75.86 57.09C79.46 51.87 82.26 46.14 82.26 46.14C82.26 46.14 82.51 47.89 83.39 50.81C83.81 52.29 84.69 53.9 85.45 55.46C82.06 58.19 79.98 61.35 79.23 63.43C77.89 67.27 78.93 69 80.91 69.4C81.81 69.6 83.09 69.17 84.02 68.77C85.22 68.39 86.62 67.74 87.97 66.76C90.25 65.09 92.44 62.77 92.31 59.62C92.25 58.19 91.87 56.77 91.33 55.4C94.21 54.21 97.92 53.56 102.65 54.11C112.79 55.29 114.8 61.57 114.41 64.21C114.03 66.85 111.9 68.29 111.2 68.73C110.49 69.17 110.26 69.32 110.32 69.64C110.41 70.1 110.75 70.08 111.35 70C112.18 69.85 116.67 67.86 116.86 63C117.18 56.79 111.22 50.01 100.67 50.07ZM22.42 76.23C19.05 79.86 14.36 81.24 12.34 80.08C10.16 78.83 11.02 73.46 15.15 69.62C17.66 67.27 20.9 65.09 23.06 63.76C23.55 63.47 24.27 63.05 25.14 62.52C25.29 62.43 25.38 62.39 25.38 62.39L25.89 62.07C27.4 67.57 25.95 72.41 22.42 76.23ZM46.92 59.71C45.75 62.54 43.3 69.79 41.81 69.38C40.53 69.05 39.74 63.55 41.55 58.12C42.47 55.4 44.41 52.14 45.54 50.87C47.37 48.85 49.4 48.17 49.89 48.99C50.5 50.07 47.65 57.93 46.92 59.71ZM67.15 69.3C66.66 69.55 66.19 69.72 65.97 69.6C65.83 69.51 66.19 69.17 66.19 69.17C66.19 69.17 68.72 66.47 69.73 65.24C70.3 64.52 70.98 63.68 71.71 62.73L71.71 63C71.71 66.24 68.55 68.41 67.15 69.3L67.15 69.3ZM82.75 65.77C82.38 65.52 82.45 64.67 83.66 62.03C84.13 61 85.24 59.26 87.14 57.59C87.35 58.27 87.5 58.92 87.48 59.54C87.46 63.62 84.52 65.14 82.75 65.77Z" fill="#CD6799" fill-opacity="1.000000" fill-rule="nonzero"/>
	</g>
	</g>

	<g id='react' transform="translate(4,8)">
	<defs>
		<clipPath id="clip2_5870">
			<rect rx="0.000000" width="112.000000" height="100.000000" transform="translate(0.500000 0.500000)" fill="white" fill-opacity="0"/>
		</clipPath>
	</defs>
	<rect rx="0.000000" width="112.000000" height="100.000000" transform="translate(0.500000 0.500000)" fill="#FFFFFF" fill-opacity="0"/>
	<g clip-path="url(#clip2_5870)">
		<path d="M92.9 32.7C91.7 32.28 90.49 31.9 89.26 31.55C89.47 30.71 89.66 29.87 89.83 29.06C92.58 15.64 90.78 4.84 84.63 1.28C78.74 -2.13 69.1 1.42 59.36 9.93C58.4 10.77 57.46 11.63 56.55 12.52C55.93 11.93 55.31 11.35 54.68 10.78C44.47 1.69 34.24 -2.14 28.1 1.43C22.21 4.85 20.47 15.01 22.95 27.72C23.2 28.98 23.47 30.23 23.78 31.48C22.34 31.89 20.94 32.33 19.6 32.8C7.64 36.98 0 43.54 0 50.35C0 57.38 8.2 64.43 20.66 68.7C21.67 69.04 22.69 69.36 23.72 69.66C23.38 71 23.09 72.35 22.83 73.71C20.47 86.2 22.31 96.12 28.18 99.52C34.25 103.03 44.43 99.42 54.35 90.72C55.15 90.01 55.94 89.29 56.7 88.54C57.7 89.5 58.71 90.43 59.76 91.34C69.36 99.63 78.85 102.98 84.71 99.57C90.77 96.05 92.74 85.39 90.19 72.43C89.98 71.42 89.76 70.4 89.51 69.4C90.22 69.19 90.92 68.97 91.61 68.74C104.56 64.43 112.99 57.47 112.99 50.35C112.99 43.52 105.1 36.91 92.9 32.7ZM90.09 64.14C89.47 64.35 88.84 64.55 88.19 64.74C86.76 60.19 84.83 55.36 82.47 50.37C84.73 45.5 86.58 40.73 87.97 36.22C89.13 36.55 90.25 36.9 91.33 37.28C101.79 40.89 108.16 46.23 108.16 50.35C108.16 54.73 101.28 60.42 90.09 64.14ZM85.45 73.37C86.58 79.1 86.74 84.29 85.99 88.34C85.32 91.98 83.97 94.41 82.29 95.38C78.73 97.45 71.12 94.76 62.91 87.67C61.93 86.83 60.99 85.96 60.06 85.07C63.25 81.57 66.43 77.51 69.54 73C75 72.51 80.16 71.71 84.84 70.63C85.06 71.54 85.27 72.45 85.45 73.37ZM38.52 95.02C35.04 96.25 32.27 96.29 30.6 95.32C27.03 93.26 25.55 85.29 27.57 74.61C27.81 73.35 28.09 72.09 28.4 70.85C33.02 71.87 38.15 72.61 43.62 73.06C46.75 77.47 50.02 81.53 53.32 85.08C52.62 85.77 51.9 86.43 51.17 87.07C46.79 90.92 42.39 93.65 38.52 95.02ZM22.22 64.12C16.71 62.23 12.16 59.77 9.04 57.09C6.24 54.68 4.83 52.29 4.83 50.35C4.83 46.22 10.96 40.95 21.19 37.37C22.43 36.94 23.73 36.53 25.08 36.14C26.49 40.76 28.35 45.59 30.59 50.47C28.32 55.42 26.44 60.32 25.01 64.99C24.07 64.72 23.14 64.43 22.22 64.12ZM27.69 26.79C25.56 15.9 26.97 7.68 30.52 5.62C34.3 3.42 42.66 6.56 51.47 14.41C52.04 14.92 52.61 15.44 53.17 15.98C49.88 19.52 46.64 23.54 43.54 27.93C38.23 28.43 33.14 29.22 28.46 30.28C28.17 29.13 27.92 27.96 27.69 26.79L27.69 26.79ZM76.43 38.87C75.32 36.95 74.17 35.06 72.99 33.2C76.59 33.66 80.05 34.26 83.29 35C82.32 38.14 81.1 41.41 79.68 44.77C78.63 42.78 77.55 40.81 76.43 38.87ZM56.55 19.44C58.78 21.86 61.01 24.56 63.2 27.5C58.75 27.28 54.29 27.28 49.84 27.49C52.04 24.59 54.29 21.89 56.55 19.44ZM36.55 38.9C35.44 40.83 34.37 42.79 33.36 44.77C31.95 41.42 30.75 38.13 29.77 34.95C32.99 34.23 36.43 33.64 40.01 33.19C38.81 35.07 37.66 36.97 36.55 38.9L36.55 38.9ZM40.11 67.85C36.41 67.44 32.92 66.88 29.7 66.17C30.7 62.94 31.93 59.58 33.36 56.16C34.38 58.14 35.45 60.1 36.56 62.03C37.71 64.01 38.9 65.96 40.11 67.85ZM56.68 81.6C54.39 79.12 52.11 76.38 49.88 73.43C52.05 73.52 54.25 73.56 56.5 73.56C58.8 73.56 61.07 73.51 63.32 73.41C61.12 76.41 58.89 79.15 56.68 81.6ZM79.72 55.99C81.23 59.44 82.5 62.78 83.52 65.96C80.24 66.71 76.7 67.32 72.98 67.77C74.17 65.87 75.33 63.94 76.44 61.99C77.58 60.02 78.67 58.01 79.72 55.99ZM72.26 59.57C70.55 62.56 68.74 65.49 66.84 68.35C63.4 68.6 59.95 68.72 56.5 68.72C52.98 68.72 49.56 68.61 46.26 68.39C44.31 65.53 42.47 62.6 40.74 59.6L40.74 59.6C39.02 56.62 37.41 53.57 35.92 50.46C37.41 47.36 39.01 44.31 40.73 41.32L40.73 41.32C42.44 38.34 44.27 35.42 46.21 32.57C49.57 32.31 53.01 32.18 56.49 32.18L56.5 32.18C59.99 32.18 63.44 32.31 66.8 32.57C68.72 35.41 70.54 38.32 72.25 41.3C73.97 44.28 75.59 47.31 77.12 50.39C75.61 53.51 73.99 56.57 72.26 59.57ZM82.22 5.48C86 7.67 87.48 16.5 85.1 28.08C84.95 28.82 84.78 29.57 84.59 30.33C79.9 29.25 74.81 28.44 69.48 27.94C66.38 23.5 63.16 19.47 59.93 15.97C60.78 15.16 61.64 14.36 62.53 13.58C70.87 6.3 78.67 3.42 82.22 5.48ZM56.5 40.22C62.07 40.22 66.58 44.76 66.58 50.35C66.58 55.94 62.07 60.47 56.5 60.47C50.92 60.47 46.41 55.94 46.41 50.35C46.41 44.76 50.92 40.22 56.5 40.22Z" fill="#00D8FF" fill-opacity="1.000000" fill-rule="nonzero"/>
	</g>
	</g>

	<g id="redux" transform="translate(10,5)">
	<defs/>
	<path id="Vector" d="M72.69 69.56C76.56 69.16 79.5 65.82 79.37 61.81C79.23 57.81 75.9 54.6 71.89 54.6L71.62 54.6C67.48 54.74 64.28 58.21 64.41 62.35C64.55 64.35 65.35 66.09 66.55 67.29C62.01 76.23 55.07 82.78 44.65 88.25C37.58 91.99 30.24 93.32 22.89 92.39C16.88 91.59 12.21 88.92 9.27 84.51C5 77.97 4.6 70.89 8.21 63.82C10.74 58.74 14.75 55 17.28 53.13C16.75 51.4 15.95 48.46 15.55 46.33C-3.81 60.35 -1.81 79.3 4.07 88.25C8.47 94.93 17.42 99.07 27.3 99.07C29.97 99.07 32.64 98.8 35.31 98.13C52.4 94.79 65.35 84.65 72.69 69.56ZM96.19 53C86.04 41.12 71.09 34.58 54 34.58L51.86 34.58C50.66 32.17 48.13 30.57 45.32 30.57L45.05 30.57C40.92 30.7 37.71 34.18 37.85 38.31C37.98 42.32 41.32 45.52 45.32 45.52L45.59 45.52C48.53 45.39 51.06 43.52 52.13 40.98L54.53 40.98C64.68 40.98 74.29 43.92 82.97 49.66C89.65 54.07 94.45 59.81 97.12 66.75C99.39 72.36 99.26 77.84 96.86 82.51C93.12 89.59 86.84 93.46 78.57 93.46C73.23 93.46 68.15 91.85 65.48 90.65C64.01 91.99 61.34 94.12 59.47 95.46C65.22 98.13 71.09 99.6 76.7 99.6C89.51 99.6 98.99 92.52 102.6 85.45C106.47 77.7 106.2 64.35 96.19 53ZM28.37 71.83C28.5 75.83 31.84 79.04 35.84 79.04L36.11 79.04C40.25 78.9 43.45 75.43 43.32 71.29C43.19 67.29 39.85 64.08 35.84 64.08L35.58 64.08C35.31 64.08 34.91 64.08 34.64 64.22C29.17 55.14 26.9 45.26 27.7 34.58C28.23 26.56 30.9 19.62 35.58 13.88C39.45 8.94 46.92 6.54 52 6.4C66.15 6.14 72.16 23.76 72.56 30.84C74.29 31.24 77.23 32.17 79.23 32.84C77.63 11.21 64.28 0 51.46 0C39.45 0 28.37 8.67 23.96 21.49C17.82 38.58 21.82 55 29.3 67.96C28.63 68.89 28.23 70.36 28.37 71.83L28.37 71.83Z" fill="#764ABC" fill-opacity="1.000000" fill-rule="nonzero"/>
	</g>

	<g id="javascript">
	<defs>
		<clipPath id="clip2_5883">
			<rect rx="0.000000" width="119.000000" height="119.000000" transform="translate(0.500000 0.500000)" fill="white" fill-opacity="0"/>
		</clipPath>
	</defs>
	<rect rx="0.000000" width="119.000000" height="119.000000" transform="translate(0.500000 0.500000)" fill="#FFFFFF" fill-opacity="0"/>
	<g clip-path="url(#clip2_5883)">
		<path d="M7.5 7.5L112.5 7.5L112.5 112.5L7.5 112.5L7.5 7.5Z" fill="#F5DE19" fill-opacity="1.000000" fill-rule="nonzero"/>
		<path d="M78.03 89.53C78.92 91.34 80.31 92.87 82.04 93.93C83.76 94.99 85.75 95.55 87.78 95.53C91.87 95.53 94.48 93.48 94.48 90.65C94.48 87.28 91.8 86.07 87.3 84.1L84.83 83.04C77.7 80.01 72.98 76.21 72.98 68.18C72.98 60.78 78.6 55.14 87.43 55.14C90.28 54.94 93.14 55.58 95.63 56.98C98.13 58.39 100.15 60.49 101.46 63.04L93.75 67.98C93.24 66.71 92.37 65.63 91.24 64.87C90.11 64.12 88.77 63.72 87.41 63.75C86.82 63.69 86.22 63.75 85.65 63.94C85.08 64.12 84.56 64.42 84.12 64.82C83.67 65.22 83.32 65.7 83.07 66.25C82.83 66.79 82.7 67.38 82.69 67.98C82.69 70.93 84.52 72.13 88.76 73.98L91.23 75.03C99.61 78.63 104.35 82.29 104.35 90.53C104.35 99.42 97.37 104.28 88 104.28C84.35 104.52 80.71 103.69 77.52 101.9C74.33 100.11 71.72 97.43 70.02 94.19L78.03 89.53ZM43.17 90.38C44.72 93.13 46.13 95.46 49.52 95.46C52.76 95.46 54.81 94.19 54.81 89.26L54.81 55.71L64.68 55.71L64.68 89.39C64.68 99.6 58.68 104.25 49.94 104.25C46.85 104.42 43.79 103.65 41.15 102.05C38.5 100.44 36.41 98.07 35.14 95.25L43.17 90.38Z" fill="#000000" fill-opacity="1.000000" fill-rule="nonzero"/>
	</g>
	</g>

	<g id="html">
	<defs>
		<clipPath id="clip2_5893">
			<rect rx="0.000000" width="119.000000" height="119.000000" transform="translate(0.500000 0.500000)" fill="white" fill-opacity="0"/>
		</clipPath>
	</defs>
	<rect rx="0.000000" width="119.000000" height="119.000000" transform="translate(0.500000 0.500000)" fill="#FFFFFF" fill-opacity="0"/>
	<g clip-path="url(#clip2_5893)">
		<path d="M22.13 102L13.7 7.5L106.29 7.5L97.85 101.98L59.94 112.5L22.13 102Z" fill="#E44F26" fill-opacity="1.000000" fill-rule="nonzero"/>
		<path d="M60 104.46L90.63 95.97L97.84 15.22L60 15.22L60 104.46Z" fill="#F1662A" fill-opacity="1.000000" fill-rule="nonzero"/>
		<path d="M60 50.27L44.66 50.27L43.6 38.4L60 38.4L60 26.81L30.93 26.81L31.21 29.92L34.06 61.86L60 61.86L60 50.27ZM60 80.37L59.94 80.39L47.04 76.9L46.21 67.66L34.57 67.66L36.2 85.86L59.94 92.45L60 92.43L60 80.37Z" fill="#EBEBEB" fill-opacity="1.000000" fill-rule="nonzero"/>
		<path d="M59.95 50.27L59.95 61.86L74.23 61.86L72.88 76.9L59.95 80.38L59.95 92.44L83.72 85.86L83.89 83.9L86.61 53.38L86.9 50.27L59.95 50.27ZM59.95 26.81L59.95 38.4L87.95 38.4L88.18 35.8L88.71 29.92L88.99 26.81L59.95 26.81Z" fill="#FFFFFF" fill-opacity="1.000000" fill-rule="nonzero"/>
	</g>
	</g>


	<g id='typescript'>
			<rect width="108" height="108" x="6" y="6" fill="#1976d2"/>
		<g transform="translate(28,28) scale(2)">
			<polygon fill="#fff" points="27.49,22 14.227,22 14.227,25.264 18.984,25.264 18.984,40 22.753,40 22.753,25.264 27.49,25.264"/>
			<path fill="#fff" d="M39.194,26.084c0,0-1.787-1.192-3.807-1.192s-2.747,0.96-2.747,1.986 c0,2.648,7.381,2.383,7.381,7.712c0,8.209-11.254,4.568-11.254,4.568V35.22c0,0,2.152,1.622,4.733,1.622s2.483-1.688,2.483-1.92 c0-2.449-7.315-2.449-7.315-7.878c0-7.381,10.658-4.469,10.658-4.469L39.194,26.084z"/>
		</g>
	</g>

	<g id='nextJs'>
		<g fill="#ffffff" fill-rule="nonzero" stroke="none" stroke-width="1" stroke-linecap="butt" stroke-linejoin="miter" stroke-miterlimit="10" stroke-dasharray="" stroke-dashoffset="0" font-family="none"  font-size="none"  style="mix-blend-mode: normal">
			<g transform="scale(2.5,2.5)">
				<path d="M18.974,31.5c0,0.828 -0.671,1.5 -1.5,1.5c-0.829,0 -1.5,-0.672 -1.5,-1.5v-14c0,-0.653 0.423,-1.231 1.045,-1.43c0.625,-0.198 1.302,0.03 1.679,0.563l16.777,23.704c5.142,-3.628 8.525,-9.602 8.525,-16.337c0,-11 -9,-20 -20,-20c-11,0 -20,9 -20,20c0,11 9,20 20,20c3.192,0 6.206,-0.777 8.89,-2.122l-13.916,-19.662zM28.974,16.5c0,-0.828 0.671,-1.5 1.5,-1.5c0.829,0 1.5,0.672 1.5,1.5v13.84l-3,-4.227z"></path>
			</g>
		</g>
	</g>

	<g id="materialUi" transform="scale(2.4,2.4)">
		<polygon fill="#0288d1" points="47,20 41,24 41,37 47,33"/>
		<polygon fill="#0288d1" points="47,6 41,10 41,17 47,13"/>
		<polygon fill="#0288d1" points="35,5 29,9 29,29 35,25"/>
		<polygon fill="#29b6f6" points="1,12 18,23 18,16 1,5"/>
		<polygon fill="#0288d1" points="35,12 18,23 18,16 35,5"/>
		<polygon fill="#0288d1" points="35,26 18,37 18,30 35,19"/>
		<polygon fill="#0288d1" points="47,34 30,45 30,38 47,27"/>
		<polygon fill="#29b6f6" points="30,37.765 18,30 18,37 30,44.765"/>
	</g>

	<g id="zod" transform="scale(4.9,4.9)">
		<path d="M19.088 2.477 24 7.606 12.521 20.485l-0.925 1.038L0 7.559l5.108 -5.082h13.98Zm-17.434 5.2 6.934 -4.003H5.601L1.619 7.636l0.035 0.041Zm12.117 -4.003L3.333 9.7l2.149 2.588 10.809 -6.241 -0.2 -0.346 2.851 -1.646 -0.365 -0.381h-4.806Zm7.52 2.834L8.257 14.034h5.101v-0.4h3.667l5.346 -5.998 -1.08 -1.128Zm-7.129 10.338H9.268l2.36 2.843 2.534 -2.843Z" fill="#ffffff" stroke-width="1"></path>
	</g>

	<g id="hookForm" transform="scale(0.6,0.6)">
		<path d="M157.995 8.5c10.08 0 19.206 4.087 25.812 10.692S194.5 34.924 194.5 45.003h0v111.994c0 10.08-4.086 19.206-10.692 25.812a36.39 36.39 0 0 1-25.813 10.691h0-112.99c-10.08 0-19.206-4.087-25.812-10.692S8.5 167.076 8.5 156.997h0V45.003c0-10.08 4.086-19.206 10.692-25.812A36.39 36.39 0 0 1 45.005 8.5h0z" stroke="#fff" stroke-width="17" fill="#ec5990"/>
		<path d="M133.385 51.604h-20.868c-1.53-4.766-5.981-8.001-11.009-8.001s-9.479 3.235-11.009 8.001H69.616c-8.222 0-14.887 6.632-14.887 14.813v77.177c0 8.181 6.665 14.813 14.887 14.813h63.769c8.222 0 14.887-6.632 14.887-14.813V66.417c0-8.181-6.665-14.813-14.887-14.813h0zM91.54 54.297a1.35 1.35 0 0 0 1.353-1.064c.886-4.046 4.486-6.932 8.648-6.932s7.762 2.885 8.648 6.932a1.35 1.35 0 0 0 1.353 1.064h7.281v8.821c0 2.231-1.818 4.04-4.06 4.04H88.305c-2.242 0-4.06-1.809-4.06-4.04v-8.821h7.294zm54.025 89.297c0 6.694-5.453 12.12-12.18 12.12H69.616c-6.727 0-12.18-5.426-12.18-12.12V66.417c0-6.694 5.453-12.12 12.18-12.12h11.923v8.821c0 3.719 3.03 6.733 6.767 6.733h26.39c3.737 0 6.767-3.015 6.767-6.733v-8.821h11.923c6.727 0 12.18 5.426 12.18 12.12v77.177zm-14.833-47.981h-23.819a1.35 1.35 0 0 0-1.353 1.347 1.35 1.35 0 0 0 1.353 1.347h23.819a1.35 1.35 0 0 0 1.353-1.347 1.35 1.35 0 0 0-1.353-1.347h0zm-35.186 0H71.727a1.35 1.35 0 0 0-1.353 1.347 1.35 1.35 0 0 0 1.353 1.347h23.819a1.35 1.35 0 0 0 1.353-1.347 1.35 1.35 0 0 0-1.353-1.347h0zm35.254 32.589h-23.886a1.35 1.35 0 0 0-1.353 1.347 1.35 1.35 0 0 0 1.353 1.347H130.8a1.35 1.35 0 0 0 1.353-1.347 1.35 1.35 0 0 0-1.353-1.347h0zm-35.187 0H71.727a1.35 1.35 0 0 0-1.353 1.347 1.35 1.35 0 0 0 1.353 1.347h23.886a1.35 1.35 0 0 0 1.353-1.347 1.35 1.35 0 0 0-1.353-1.347h0z" fill="#fff"/>
	</g>

	<g id="githubGrey">
	<defs/>
	<path d="M15 0C6.71 0 0 6.71 0 15C0 21.63 4.29 27.24 10.25 29.23C11 29.36 11.28 28.91 11.28 28.51C11.28 28.16 11.26 26.98 11.26 25.72C7.5 26.41 6.52 24.8 6.22 23.96C6.05 23.53 5.32 22.2 4.68 21.84C4.16 21.56 3.41 20.86 4.66 20.85C5.84 20.83 6.69 21.93 6.97 22.38C8.32 24.65 10.48 24.01 11.34 23.62C11.47 22.64 11.86 21.99 12.3 21.61C8.96 21.24 5.47 19.95 5.47 14.21C5.47 12.58 6.05 11.23 7.01 10.18C6.86 9.8 6.33 8.26 7.16 6.2C7.16 6.2 8.41 5.81 11.28 7.74C12.48 7.4 13.76 7.23 15.03 7.23C16.31 7.23 17.58 7.4 18.78 7.74C21.65 5.79 22.91 6.2 22.91 6.2C23.73 8.26 23.21 9.8 23.06 10.18C24.01 11.23 24.6 12.56 24.6 14.21C24.6 19.96 21.09 21.24 17.75 21.61C18.29 22.08 18.76 22.98 18.76 24.39C18.76 26.39 18.75 28.01 18.75 28.51C18.75 28.91 19.03 29.38 19.78 29.23C22.75 28.22 25.34 26.31 27.17 23.75C29.01 21.2 29.99 18.14 30 15C30 6.71 23.28 0 15 0Z" fill="#A7A7A7" fill-opacity="1.000000" fill-rule="evenodd"/>
	</g>

	<g id="githubWhite" transform="translate(16,-2)">
	<defs>
		<clipPath id="clip2_5866">
			<rect rx="0.000000" width="87.000000" height="87.000000" transform="translate(0.500000 0.500000)" fill="white" fill-opacity="0"/>
		</clipPath>
	</defs>
	<rect rx="0.000000" width="87.000000" height="87.000000" transform="translate(0.500000 0.500000)" fill="#FFFFFF" fill-opacity="0"/>
	<g clip-path="url(#clip2_5866)">
		<path d="M44 0C19.69 0 0 19.68 0 44C0 63.47 12.59 79.91 30.08 85.74C32.28 86.13 33.11 84.81 33.11 83.65C33.11 82.61 33.05 79.14 33.05 75.46C22 77.49 19.14 72.76 18.26 70.29C17.76 69.02 15.62 65.12 13.75 64.07C12.21 63.25 10.01 61.21 13.69 61.16C17.16 61.1 19.63 64.35 20.45 65.67C24.42 72.32 30.74 70.45 33.27 69.3C33.66 66.43 34.81 64.51 36.08 63.41C26.29 62.31 16.06 58.52 16.06 41.68C16.06 36.9 17.76 32.94 20.57 29.86C20.12 28.76 18.59 24.25 21.01 18.2C21.01 18.2 24.69 17.04 33.11 22.71C36.63 21.72 40.37 21.23 44.11 21.23C47.85 21.23 51.59 21.72 55.11 22.71C63.52 16.99 67.21 18.2 67.21 18.2C69.62 24.25 68.08 28.76 67.65 29.86C70.45 32.94 72.16 36.84 72.16 41.68C72.16 58.57 61.87 62.31 52.08 63.41C53.68 64.79 55.05 67.43 55.05 71.55C55.05 77.43 55 82.17 55 83.65C55 84.81 55.82 86.18 58.02 85.74C66.75 82.79 74.34 77.18 79.72 69.69C85.1 62.2 87.99 53.21 88 44C88 19.68 68.31 0 44 0Z" fill="#FFFEFE" fill-opacity="1.000000" fill-rule="evenodd"/>
	</g>
	</g>

	<g id="git" transform="translate(8,8)">
	<defs>
		<clipPath id="clip2_5868">
			<rect rx="0.000000" width="104.000000" height="104.000000" transform="translate(0.500000 0.500000)" fill="white" fill-opacity="0"/>
		</clipPath>
	</defs>
	<rect rx="0.000000" width="104.000000" height="104.000000" transform="translate(0.500000 0.500000)" fill="#FFFFFF" fill-opacity="0"/>
	<g clip-path="url(#clip2_5868)">
		<path d="M103.02 47.82L57.17 1.98C54.53 -0.66 50.25 -0.66 47.61 1.98L38.09 11.5L50.16 23.57C52.97 22.62 56.19 23.26 58.43 25.5C60.67 27.75 61.31 30.99 60.33 33.81L71.97 45.45C74.79 44.48 78.04 45.1 80.29 47.36C83.43 50.5 83.43 55.59 80.29 58.73C77.14 61.88 72.05 61.88 68.9 58.73C66.54 56.37 65.96 52.9 67.15 49.98L56.3 39.13L56.3 67.69C57.09 68.08 57.8 68.6 58.43 69.21C61.57 72.36 61.57 77.45 58.43 80.59C55.28 83.74 50.19 83.74 47.05 80.59C43.91 77.45 43.91 72.36 47.05 69.21C47.8 68.46 48.7 67.86 49.68 67.46L49.68 38.63C48.7 38.23 47.8 37.63 47.05 36.87C44.67 34.5 44.09 31 45.31 28.08L33.41 16.17L1.98 47.6C-0.67 50.25 -0.67 54.53 1.98 57.17L47.82 103.01C50.46 105.65 54.74 105.65 57.38 103.01L103.01 57.38C105.66 54.74 105.66 50.46 103.01 47.82L103.02 47.82Z" fill="#DE4C36" fill-opacity="1.000000" fill-rule="nonzero"/>
	</g>
	</g>

	<g id="css">
	<defs>
		<clipPath id="clip2_5886">
			<rect rx="0.000000" width="119.000000" height="118.000000" transform="translate(0.500000 0.500000)" fill="white" fill-opacity="0"/>
		</clipPath>
	</defs>
	<rect rx="0.000000" width="119.000000" height="118.000000" transform="translate(0.500000 0.500000)" fill="#FFFFFF" fill-opacity="0"/>
	<g clip-path="url(#clip2_5886)">
		<path d="M22.13 101.15L13.71 7.43L106.29 7.43L97.85 101.13L59.94 111.56L22.13 101.15Z" fill="#1572B6" fill-opacity="1.000000" fill-rule="nonzero"/>
		<path d="M60 103.59L90.63 95.17L97.84 15.1L60 15.1L60 103.59Z" fill="#33A9DC" fill-opacity="1.000000" fill-rule="nonzero"/>
		<path d="M60 49.05L75.33 49.05L76.39 37.28L60 37.28L60 25.78L89.06 25.78L88.78 28.87L85.93 60.54L60 60.54L60 49.05Z" fill="#FFFFFF" fill-opacity="1.000000" fill-rule="nonzero"/>
		<path d="M60.07 78.9L60.01 78.91L47.11 75.46L46.28 66.29L34.65 66.29L36.27 84.34L60.01 90.87L60.07 90.86L60.07 78.9Z" fill="#EBEBEB" fill-opacity="1.000000" fill-rule="nonzero"/>
		<path d="M74.35 60.06L72.95 75.45L60.03 78.91L60.03 90.87L83.79 84.34L83.96 82.4L85.98 60.06L74.35 60.06Z" fill="#FFFFFF" fill-opacity="1.000000" fill-rule="nonzero"/>
		<path d="M60.04 25.78L60.04 37.28L32.04 37.28L31.81 34.69L31.28 28.87L31 25.78L60.04 25.78ZM60 49.05L60 60.54L47.25 60.54L47.02 57.96L46.49 52.13L46.21 49.05L60 49.05Z" fill="#EBEBEB" fill-opacity="1.000000" fill-rule="nonzero"/>
	</g>
	</g>

	<g id="webStorm" transform="translate(-8,-8) scale(2.8,2.8)">
		<polygon fill="#00b8d4" points="30.051,10.652 29,9 25,7 21,9 15,6 6,10 8.875,26.672 24.625,26.5"/>
		<polygon fill="#ffea00" points="28.75,6.125 20,15 26.729,17.217 36.676,6.598"/>
		<polygon fill="#9ccc65" points="37.125,6.625 36.676,6.598 26,17 29.357,18.768 38.431,9.694"/>
		<polygon fill="#2979ff" points="42.12,18.38 37.38,23.5 34.62,21.87 40.93,15.56"/>
		<polygon fill="#00b8d4" points="32,14 24.988,25.441 32.063,35.608 42.12,29.62"/>
		<polygon fill="#1e88e5" points="24.625,26.5 8.875,26.672 11,39 31,42 32.06,35.61 32.063,35.608 24.988,25.441"/>
		<rect width="22" height="22" x="13" y="13" fill="#090504"/><polygon fill="#00b8d4" points="33,35 26,39 21,35"/>
		<rect width="8" height="2" x="15" y="31" fill="#fff"/>
		<polygon fill="#fff" points="14.625,15.875 16.625,15.875 18.125,21.125 19.75,15.875 21.25,15.875 22.75,21 24,15.875 26.125,15.875 23.625,25 21.875,25 20.25,20.25 18.875,24.875 17.125,24.875"/><path fill="#fff" d="M31.75,18.25l1-1.5c0,0-1.193-1.162-3.625-1.125c-2.158,0.033-2.907,1.707-2.875,2.625 c0.028,0.79,0,2,2.875,2.875c0.799,0.243,1.298,0.496,1.603,0.734c0.496,0.387,0.286,1.2-0.328,1.338 c-0.734,0.165-2.032,0.213-3.275-0.947l-1.25,1.5c0,0,1.875,1.5,4,1.375s3.375-1.625,3.25-2.875s-0.875-2-2.5-2.625 s-2.451-0.416-2.425-1.579C28.223,17.017,30,17,31.75,18.25z"/>
	</g>

	<g id="bootstrap">
	<defs>
		<clipPath id="clip2_5874">
			<rect rx="0.000000" width="87.000000" height="86.000000" transform="translate(0.500000 0.500000)" fill="white" fill-opacity="0"/>
		</clipPath>
	</defs>
	<rect rx="0.000000" width="87.000000" height="86.000000" transform="translate(0.500000 0.500000)" fill="#FFFFFF" fill-opacity="0"/>
	<g clip-path="url(#clip2_5874)">
		<path d="M0 75.78C0 81.97 5.08 87 11.34 87L76.65 87C82.92 87 88 81.97 88 75.78L88 11.21C88 5.02 82.91 0 76.65 0L11.34 0C5.07 0 0 5.02 0 11.21L0 75.78L0 75.78Z" fill="#563D7C" fill-opacity="1.000000" fill-rule="nonzero"/>
		<path d="M36.49 38.48L36.49 26.16L47.46 26.16C48.5 26.16 49.51 26.24 50.48 26.42C51.45 26.59 52.31 26.9 53.05 27.34C53.8 27.78 54.4 28.4 54.84 29.18C55.29 29.97 55.52 30.98 55.52 32.21C55.52 34.42 54.84 36.02 53.5 37C52.16 37.99 50.44 38.48 48.35 38.48L36.49 38.48ZM24.77 17.16L24.77 69.83L50.59 69.83C52.98 69.83 55.3 69.54 57.57 68.95C59.83 68.36 61.85 67.45 63.61 66.22C65.38 64.99 66.78 63.4 67.83 61.46C68.87 59.52 69.4 57.22 69.4 54.56C69.4 51.27 68.59 48.45 66.97 46.11C65.35 43.78 62.9 42.14 59.62 41.21C62.01 40.08 63.81 38.63 65.03 36.86C66.25 35.08 66.86 32.87 66.86 30.22C66.86 27.76 66.45 25.69 65.63 24.02C64.81 22.35 63.65 21.01 62.16 20C60.66 18.99 58.87 18.26 56.78 17.82C54.69 17.38 52.38 17.16 49.84 17.16L24.77 17.16ZM36.49 60.83L36.49 46.37L49.25 46.37C51.78 46.37 53.82 46.95 55.37 48.11C56.91 49.26 57.68 51.19 57.68 53.9C57.68 55.27 57.44 56.41 56.97 57.29C56.5 58.18 55.86 58.88 55.07 59.39C54.27 59.91 53.35 60.28 52.31 60.5C51.26 60.72 50.17 60.83 49.02 60.83L36.49 60.83Z" fill="#FFFFFF" fill-opacity="1.000000" fill-rule="nonzero"/>
	</g>
	</g>

    <!-- socialnetworks -->
	
	<g id="twitter">
	<defs/>
	<rect rx="0.000000" width="29.000000" height="29.000000" transform="translate(0.500000 0.500000)" fill="#FFFFFF" fill-opacity="0"/>
	<path d="M16.87 1.87C8.59 1.87 1.87 8.59 1.87 16.87C1.87 25.15 8.59 31.87 16.87 31.87C25.15 31.87 31.87 25.15 31.87 16.87C31.87 8.59 25.15 1.87 16.87 1.87ZM24.08 13.18C24.09 13.33 24.09 13.5 24.09 13.66C24.09 18.57 20.35 24.24 13.51 24.24C11.4 24.24 9.44 23.62 7.79 22.57C8.09 22.6 8.38 22.62 8.69 22.62C10.43 22.62 12.03 22.03 13.31 21.03C11.67 21 10.3 19.92 9.83 18.45C10.4 18.53 10.92 18.53 11.51 18.38C10.67 18.21 9.91 17.76 9.37 17.09C8.83 16.42 8.53 15.59 8.53 14.73L8.53 14.69C9.03 14.97 9.6 15.14 10.21 15.16C9.7 14.82 9.28 14.36 8.99 13.82C8.7 13.28 8.55 12.68 8.55 12.07C8.55 11.37 8.73 10.74 9.06 10.19C9.99 11.34 11.16 12.28 12.48 12.95C13.8 13.62 15.25 14 16.73 14.08C16.2 11.55 18.09 9.5 20.36 9.5C21.43 9.5 22.39 9.95 23.07 10.68C23.91 10.52 24.72 10.2 25.43 9.78C25.16 10.64 24.57 11.37 23.8 11.83C24.55 11.75 25.27 11.54 25.94 11.25C25.44 11.99 24.81 12.65 24.08 13.18Z" fill="#A7A7A7" fill-opacity="1.000000" fill-rule="nonzero"/>
	</g>

	<g id='linkedIn'>
	<defs>
		<clipPath id="clip2_5860">
			<rect rx="0.000000" width="29.000000" height="29.000000" transform="translate(0.500000 0.500000)" fill="white" fill-opacity="0"/>
		</clipPath>
	</defs>
	<rect rx="0.000000" width="29.000000" height="29.000000" transform="translate(0.500000 0.500000)" fill="#FFFFFF" fill-opacity="0"/>
	<g clip-path="url(#clip2_5860)">
		<path d="M15 0.6C7.04 0.6 0.59 7.04 0.59 15C0.59 22.95 7.04 29.4 15 29.4C22.95 29.4 29.4 22.95 29.4 15C29.4 7.04 22.95 0.6 15 0.6ZM11.47 20.96L8.55 20.96L8.55 11.58L11.47 11.58L11.47 20.96ZM9.99 10.43C9.07 10.43 8.48 9.78 8.48 8.97C8.48 8.14 9.09 7.51 10.03 7.51C10.97 7.51 11.55 8.14 11.57 8.97C11.57 9.78 10.97 10.43 9.99 10.43ZM22.12 20.96L19.2 20.96L19.2 15.76C19.2 14.55 18.78 13.73 17.73 13.73C16.92 13.73 16.44 14.29 16.23 14.82C16.15 15.01 16.13 15.28 16.13 15.55L16.13 20.96L13.22 20.96L13.22 14.57C13.22 13.4 13.18 12.42 13.14 11.58L15.67 11.58L15.81 12.88L15.87 12.88C16.25 12.27 17.19 11.37 18.76 11.37C20.68 11.37 22.12 12.65 22.12 15.42L22.12 20.96Z" fill="#A7A7A7" fill-opacity="1.000000" fill-rule="nonzero"/>
	</g>
	</g>

	<!-- logo -->

	<g id="logo">
	<defs>
		<clipPath id="clip2_5989">
			<rect rx="0.000000" width="96.000000" height="58.000000" transform="translate(0.500000 0.500000)" fill="white" fill-opacity="0"/>
		</clipPath>
	</defs>
	<rect rx="0.000000" width="96.000000" height="58.000000" transform="translate(0.500000 0.500000)" fill="#FFFFFF" fill-opacity="0"/>
	<g clip-path="url(#clip2_5989)">
		<path d="M12.55 0L12.55 3.83C11.5 3.83 10.67 3.98 10.08 4.28C9.49 4.57 9.24 5.15 9.32 6.04L9.86 11.17C10 12.47 9.85 13.52 9.42 14.33C9 15.13 8.36 15.74 7.49 16.17C6.63 16.59 5.62 16.88 4.45 17.06C5.69 17.24 6.74 17.55 7.6 17.96C8.45 18.38 9.08 18.99 9.47 19.78C9.87 20.56 10 21.62 9.86 22.94L9.32 28.08C9.24 28.96 9.49 29.55 10.08 29.84C10.67 30.14 11.5 30.29 12.55 30.29L12.55 34.12C9.35 34.12 7.1 33.64 5.8 32.66C4.52 31.7 4 30.04 4.24 27.7L4.76 22.72C4.85 21.84 4.7 21.14 4.31 20.65C3.93 20.15 3.36 19.8 2.6 19.6C1.85 19.39 0.98 19.29 0 19.29L0 14.83C0.97 14.83 1.83 14.73 2.59 14.53C3.34 14.33 3.91 13.97 4.31 13.47C4.7 12.97 4.85 12.28 4.76 11.4L4.24 6.45C3.98 4.06 4.51 2.39 5.8 1.44C7.1 0.48 9.35 0 12.55 0Z" fill="#A7A7A7" fill-opacity="1.000000" fill-rule="nonzero"/>
		<path d="M27.63 4.5C30.5 4.5 32.67 5.62 34.13 7.85C35.61 10.07 36.34 13.16 36.34 17.13C36.34 21.11 35.61 24.23 34.13 26.48C32.67 28.72 30.5 29.84 27.63 29.84C24.73 29.84 22.55 28.72 21.09 26.48C19.64 24.23 18.91 21.11 18.91 17.13C18.91 13.16 19.64 10.07 21.09 7.85C22.55 5.62 24.73 4.5 27.63 4.5ZM27.63 8.49C26.4 8.49 25.5 9.15 24.93 10.48C24.36 11.79 24.08 14.01 24.08 17.13C24.08 18.15 24.1 19.06 24.13 19.86C24.17 20.65 24.22 21.35 24.29 21.97L30.17 9.66C29.89 9.22 29.54 8.92 29.12 8.75C28.72 8.58 28.22 8.49 27.63 8.49ZM31.14 17.13C31.14 15.79 31.11 14.67 31.05 13.75L25.51 25.23C25.76 25.47 26.06 25.64 26.41 25.73C26.77 25.82 27.18 25.87 27.63 25.87C28.45 25.87 29.12 25.59 29.63 25.03C30.15 24.48 30.53 23.56 30.78 22.28C31.02 20.99 31.14 19.28 31.14 17.13Z" fill="#A7A7A7" fill-opacity="1.000000" fill-rule="nonzero"/>
		<path d="M48.5 4.5C51.37 4.5 53.54 5.62 55 7.85C56.47 10.07 57.21 13.16 57.21 17.13C57.21 21.11 56.47 24.23 55 26.48C53.54 28.72 51.37 29.84 48.5 29.84C45.6 29.84 43.42 28.72 41.96 26.48C40.51 24.23 39.78 21.11 39.78 17.13C39.78 13.16 40.51 10.07 41.96 7.85C43.42 5.62 45.6 4.5 48.5 4.5ZM48.5 8.49C47.27 8.49 46.37 9.15 45.8 10.48C45.23 11.79 44.95 14.01 44.95 17.13C44.95 18.15 44.96 19.06 45 19.86C45.03 20.65 45.09 21.35 45.16 21.97L51.03 9.66C50.76 9.22 50.41 8.92 49.99 8.75C49.59 8.58 49.09 8.49 48.5 8.49ZM52.01 17.13C52.01 15.79 51.98 14.67 51.92 13.75L46.37 25.23C46.63 25.47 46.93 25.64 47.28 25.73C47.64 25.82 48.04 25.87 48.5 25.87C49.32 25.87 49.99 25.59 50.5 25.03C51.02 24.48 51.4 23.56 51.64 22.28C51.89 20.99 52.01 19.28 52.01 17.13Z" fill="#A7A7A7" fill-opacity="1.000000" fill-rule="nonzero"/>
		<path d="M68.11 29.8L62.89 28.19L71.88 9.26L61.29 9.26L61.29 5.11L77.45 5.11L77.45 8.84L68.11 29.8Z" fill="#A7A7A7" fill-opacity="1.000000" fill-rule="nonzero"/>
		<path d="M84.44 0C87.64 0 89.88 0.48 91.17 1.44C92.47 2.4 92.99 4.06 92.75 6.42L92.23 11.4C92.14 12.28 92.29 12.97 92.68 13.47C93.08 13.97 93.64 14.33 94.39 14.53C95.14 14.73 96.01 14.83 97 14.83L97 19.29C96.02 19.29 95.16 19.39 94.4 19.6C93.65 19.8 93.08 20.15 92.68 20.65C92.29 21.14 92.14 21.84 92.23 22.72L92.75 27.66C93.02 30.04 92.5 31.71 91.19 32.68C89.89 33.64 87.64 34.12 84.44 34.12L84.44 30.29C85.5 30.29 86.33 30.14 86.92 29.84C87.52 29.55 87.76 28.96 87.67 28.08L87.13 22.94C86.99 21.63 87.13 20.58 87.55 19.79C87.98 18.99 88.63 18.38 89.5 17.96C90.37 17.53 91.39 17.23 92.56 17.06C91.32 16.87 90.26 16.57 89.39 16.15C88.54 15.74 87.91 15.13 87.52 14.34C87.12 13.54 86.99 12.49 87.13 11.17L87.67 6.04C87.76 5.15 87.51 4.57 86.91 4.28C86.32 3.98 85.49 3.83 84.44 3.83L84.44 0Z" fill="#A7A7A7" fill-opacity="1.000000" fill-rule="nonzero"/>
		<path d="M12.27 42.16C13.24 42.16 14.02 42.4 14.61 42.88C15.2 43.36 15.63 44.04 15.9 44.92C16.18 45.79 16.32 46.83 16.32 48.04C16.32 49.18 16.15 50.2 15.82 51.1C15.48 51.99 15 52.69 14.37 53.21C13.73 53.72 12.97 53.97 12.06 53.97C10.98 53.97 10.11 53.59 9.43 52.81L9.43 57.9L6.13 58.25L6.13 42.52L9.06 42.52L9.2 43.77C9.65 43.19 10.15 42.78 10.68 42.53C11.22 42.28 11.75 42.16 12.27 42.16ZM11.25 44.59C10.86 44.59 10.53 44.71 10.23 44.94C9.94 45.17 9.67 45.48 9.43 45.88L9.43 50.56C9.66 50.9 9.9 51.15 10.15 51.31C10.41 51.47 10.71 51.55 11.06 51.55C11.64 51.55 12.1 51.28 12.43 50.76C12.75 50.22 12.92 49.33 12.92 48.08C12.92 47.16 12.85 46.45 12.72 45.95C12.59 45.44 12.39 45.09 12.14 44.89C11.89 44.69 11.59 44.59 11.25 44.59Z" fill="#A7A7A7" fill-opacity="1.000000" fill-rule="nonzero"/>
		<path d="M27.98 50.42C27.98 50.84 28.04 51.14 28.15 51.33C28.27 51.52 28.46 51.66 28.71 51.76L28.04 53.93C27.38 53.87 26.83 53.73 26.38 53.5C25.93 53.27 25.58 52.93 25.32 52.47C24.9 52.98 24.35 53.36 23.69 53.61C23.03 53.85 22.36 53.97 21.67 53.97C20.53 53.97 19.62 53.65 18.93 53C18.26 52.35 17.92 51.51 17.92 50.48C17.92 49.28 18.39 48.35 19.33 47.69C20.28 47.04 21.61 46.71 23.32 46.71L24.81 46.71L24.81 46.29C24.81 45.16 24.08 44.59 22.62 44.59C22.26 44.59 21.81 44.64 21.25 44.75C20.7 44.85 20.14 44.99 19.58 45.18L18.82 42.98C19.54 42.71 20.28 42.51 21.05 42.37C21.83 42.23 22.53 42.16 23.14 42.16C24.79 42.16 26.01 42.49 26.79 43.17C27.59 43.84 27.98 44.81 27.98 46.07L27.98 50.42ZM22.81 51.61C23.16 51.61 23.53 51.51 23.92 51.3C24.31 51.08 24.61 50.78 24.81 50.39L24.81 48.59L24 48.59C23.08 48.59 22.4 48.74 21.97 49.02C21.54 49.3 21.32 49.71 21.32 50.25C21.32 50.68 21.45 51.01 21.71 51.26C21.98 51.49 22.34 51.61 22.81 51.61Z" fill="#A7A7A7" fill-opacity="1.000000" fill-rule="nonzero"/>
		<path d="M41.63 42.52L37.94 53.62L34.05 53.62L30.32 42.52L33.88 42.52L36.04 51.09L38.29 42.52L41.63 42.52Z" fill="#A7A7A7" fill-opacity="1.000000" fill-rule="nonzero"/>
		<path d="M53.02 50.42C53.02 50.84 53.08 51.14 53.19 51.33C53.31 51.52 53.5 51.66 53.75 51.76L53.08 53.93C52.42 53.87 51.87 53.73 51.42 53.5C50.97 53.27 50.62 52.93 50.36 52.47C49.94 52.98 49.4 53.36 48.73 53.61C48.07 53.85 47.4 53.97 46.71 53.97C45.57 53.97 44.66 53.65 43.98 53C43.3 52.35 42.96 51.51 42.96 50.48C42.96 49.28 43.43 48.35 44.37 47.69C45.32 47.04 46.65 46.71 48.36 46.71L49.85 46.71L49.85 46.29C49.85 45.16 49.12 44.59 47.66 44.59C47.3 44.59 46.85 44.64 46.29 44.75C45.74 44.85 45.18 44.99 44.62 45.18L43.86 42.98C44.58 42.71 45.32 42.51 46.09 42.37C46.87 42.23 47.57 42.16 48.18 42.16C49.83 42.16 51.05 42.49 51.83 43.17C52.63 43.84 53.02 44.81 53.02 46.07L53.02 50.42ZM47.85 51.61C48.2 51.61 48.57 51.51 48.96 51.3C49.35 51.08 49.65 50.78 49.85 50.39L49.85 48.59L49.04 48.59C48.12 48.59 47.44 48.74 47.01 49.02C46.58 49.3 46.37 49.71 46.37 50.25C46.37 50.68 46.49 51.01 46.75 51.26C47.02 51.49 47.38 51.61 47.85 51.61Z" fill="#A7A7A7" fill-opacity="1.000000" fill-rule="nonzero"/>
		<path d="M56.21 53.62L56.21 42.52L59.09 42.52L59.32 43.81C59.82 43.25 60.34 42.84 60.89 42.56C61.44 42.29 62.07 42.16 62.77 42.16C63.71 42.16 64.46 42.45 65 43.02C65.54 43.6 65.82 44.42 65.82 45.47L65.82 53.62L62.52 53.62L62.52 46.42C62.52 45.74 62.44 45.26 62.29 45C62.14 44.73 61.86 44.59 61.45 44.59C61.1 44.59 60.77 44.7 60.45 44.93C60.14 45.15 59.82 45.46 59.51 45.86L59.51 53.62L56.21 53.62Z" fill="#A7A7A7" fill-opacity="1.000000" fill-rule="nonzero"/>
		<path d="M76.93 42.16C77.71 42.16 78.29 42.41 78.67 42.93C79.05 43.44 79.24 44.26 79.24 45.41L79.24 53.62L76.41 53.62L76.41 45.78C76.41 45.39 76.38 45.12 76.3 44.96C76.23 44.8 76.08 44.72 75.86 44.72C75.69 44.72 75.51 44.77 75.32 44.87C75.14 44.97 74.94 45.16 74.71 45.44L74.71 53.62L72.4 53.62L72.4 45.78C72.4 45.39 72.36 45.12 72.28 44.96C72.21 44.8 72.07 44.72 71.84 44.72C71.67 44.72 71.49 44.77 71.3 44.87C71.12 44.97 70.92 45.16 70.7 45.44L70.7 53.62L67.83 53.62L67.83 42.52L70.25 42.52L70.47 43.6C70.81 43.13 71.17 42.77 71.52 42.52C71.88 42.28 72.3 42.16 72.78 42.16C73.2 42.16 73.56 42.27 73.85 42.48C74.15 42.69 74.36 43.02 74.48 43.47C74.82 43.08 75.19 42.77 75.59 42.52C75.99 42.28 76.44 42.16 76.93 42.16Z" fill="#A7A7A7" fill-opacity="1.000000" fill-rule="nonzero"/>
		<path d="M91.1 40.75L91.87 43.17C91.48 43.32 91.02 43.44 90.5 43.5C89.98 43.57 89.37 43.61 88.67 43.61C89.37 43.91 89.9 44.28 90.26 44.73C90.63 45.17 90.81 45.74 90.81 46.46C90.81 47.18 90.62 47.82 90.24 48.38C89.86 48.94 89.31 49.38 88.61 49.7C87.91 50.02 87.08 50.18 86.12 50.18C85.66 50.18 85.23 50.14 84.83 50.06C84.72 50.12 84.63 50.21 84.56 50.33C84.5 50.45 84.47 50.57 84.47 50.69C84.47 50.87 84.54 51.02 84.68 51.16C84.82 51.3 85.16 51.37 85.69 51.37L87.51 51.37C88.37 51.37 89.11 51.51 89.74 51.79C90.37 52.07 90.86 52.45 91.21 52.93C91.56 53.41 91.73 53.96 91.73 54.58C91.73 55.71 91.23 56.61 90.24 57.26C89.24 57.92 87.77 58.25 85.8 58.25C84.39 58.25 83.29 58.1 82.51 57.81C81.73 57.52 81.2 57.11 80.89 56.57C80.59 56.04 80.44 55.41 80.44 54.68L83.36 54.68C83.36 55 83.42 55.26 83.55 55.47C83.68 55.68 83.93 55.83 84.29 55.93C84.66 56.02 85.19 56.07 85.89 56.07C86.59 56.07 87.13 56.02 87.5 55.91C87.86 55.79 88.11 55.64 88.25 55.45C88.39 55.26 88.46 55.05 88.46 54.81C88.46 54.48 88.33 54.22 88.07 54.01C87.81 53.81 87.4 53.71 86.85 53.71L85.08 53.71C83.89 53.71 83.02 53.49 82.48 53.05C81.93 52.61 81.66 52.09 81.66 51.5C81.66 51.09 81.77 50.7 81.98 50.33C82.21 49.96 82.52 49.65 82.91 49.4C82.2 49.02 81.7 48.58 81.39 48.07C81.08 47.55 80.93 46.94 80.93 46.22C80.93 45.39 81.14 44.67 81.57 44.07C81.99 43.46 82.58 43 83.32 42.67C84.07 42.34 84.93 42.18 85.89 42.18C86.72 42.19 87.44 42.14 88.05 42.01C88.66 41.88 89.21 41.7 89.7 41.48C90.18 41.25 90.65 41 91.1 40.75ZM85.97 44.32C85.45 44.32 85.04 44.49 84.73 44.82C84.42 45.15 84.27 45.6 84.27 46.18C84.27 46.79 84.43 47.26 84.74 47.59C85.05 47.92 85.46 48.08 85.97 48.08C87.1 48.08 87.66 47.43 87.66 46.14C87.66 44.93 87.1 44.32 85.97 44.32Z" fill="#A7A7A7" fill-opacity="1.000000" fill-rule="nonzero"/>
	</g>
	</g>


	<g id='logoGradient'>
	<defs>
		<clipPath id="clip2_5840">
			<rect id="logo 1" rx="0.000000" width="96.000000" height="58.000000" transform="translate(0.500000 0.500000)" fill="white" fill-opacity="0"/>
		</clipPath>
		<linearGradient x1="-2.050045" y1="36.754921" x2="99.947586" y2="0.610847" id="paint_linear_2_5841_0" gradientUnits="userSpaceOnUse">
			<stop stop-color="#00C0FD"/>
			<stop offset="1.000000" stop-color="#E70FAA"/>
		</linearGradient>
		<linearGradient x1="-2.050037" y1="36.754921" x2="99.947617" y2="0.610863" id="paint_linear_2_5842_0" gradientUnits="userSpaceOnUse">
			<stop stop-color="#00C0FD"/>
			<stop offset="1.000000" stop-color="#E70FAA"/>
		</linearGradient>
		<linearGradient x1="-2.050022" y1="36.754929" x2="99.947601" y2="0.610886" id="paint_linear_2_5843_0" gradientUnits="userSpaceOnUse">
			<stop stop-color="#00C0FD"/>
			<stop offset="1.000000" stop-color="#E70FAA"/>
		</linearGradient>
		<linearGradient x1="-2.050060" y1="36.754883" x2="99.947586" y2="0.610840" id="paint_linear_2_5844_0" gradientUnits="userSpaceOnUse">
			<stop stop-color="#00C0FD"/>
			<stop offset="1.000000" stop-color="#E70FAA"/>
		</linearGradient>
		<linearGradient x1="-2.050087" y1="36.754936" x2="99.947525" y2="0.610847" id="paint_linear_2_5845_0" gradientUnits="userSpaceOnUse">
			<stop stop-color="#00C0FD"/>
			<stop offset="1.000000" stop-color="#E70FAA"/>
		</linearGradient>
		<linearGradient x1="-0.244356" y1="59.345459" x2="93.629501" y2="39.466156" id="paint_linear_2_5846_0" gradientUnits="userSpaceOnUse">
			<stop stop-color="#13B0F5"/>
			<stop offset="1.000000" stop-color="#CA24B4"/>
		</linearGradient>
		<linearGradient x1="-0.244516" y1="59.345490" x2="93.629341" y2="39.466187" id="paint_linear_2_5847_0" gradientUnits="userSpaceOnUse">
			<stop stop-color="#13B0F5"/>
			<stop offset="1.000000" stop-color="#CA24B4"/>
		</linearGradient>
		<linearGradient x1="-0.244375" y1="59.345276" x2="93.629486" y2="39.465973" id="paint_linear_2_5848_0" gradientUnits="userSpaceOnUse">
			<stop stop-color="#13B0F5"/>
			<stop offset="1.000000" stop-color="#CA24B4"/>
		</linearGradient>
		<linearGradient x1="-0.244474" y1="59.345459" x2="93.629379" y2="39.466202" id="paint_linear_2_5849_0" gradientUnits="userSpaceOnUse">
			<stop stop-color="#13B0F5"/>
			<stop offset="1.000000" stop-color="#CA24B4"/>
		</linearGradient>
		<linearGradient x1="-0.244442" y1="59.345413" x2="93.629440" y2="39.466202" id="paint_linear_2_5850_0" gradientUnits="userSpaceOnUse">
			<stop stop-color="#13B0F5"/>
			<stop offset="1.000000" stop-color="#CA24B4"/>
		</linearGradient>
		<linearGradient x1="-0.244581" y1="59.344940" x2="93.629417" y2="39.466339" id="paint_linear_2_5851_0" gradientUnits="userSpaceOnUse">
			<stop stop-color="#13B0F5"/>
			<stop offset="1.000000" stop-color="#CA24B4"/>
		</linearGradient>
		<linearGradient x1="-0.244415" y1="59.345406" x2="93.629456" y2="39.466103" id="paint_linear_2_5852_0" gradientUnits="userSpaceOnUse">
			<stop stop-color="#13B0F5"/>
			<stop offset="1.000000" stop-color="#CA24B4"/>
		</linearGradient>
	</defs>
	<rect id="logo 1" rx="0.000000" width="96.000000" height="58.000000" transform="translate(0.500000 0.500000)" fill="#FFFFFF" fill-opacity="0"/>
	<g clip-path="url(#clip2_5840)">
		<path id="Vector" d="M12.55 0L12.55 3.83C11.5 3.83 10.67 3.98 10.08 4.28C9.49 4.57 9.24 5.15 9.32 6.04L9.86 11.17C10 12.47 9.85 13.52 9.42 14.33C9 15.13 8.36 15.74 7.49 16.17C6.63 16.59 5.62 16.88 4.45 17.06C5.69 17.24 6.74 17.55 7.6 17.96C8.45 18.38 9.08 18.99 9.47 19.78C9.87 20.56 10 21.62 9.86 22.94L9.32 28.08C9.24 28.96 9.49 29.55 10.08 29.84C10.67 30.14 11.5 30.29 12.55 30.29L12.55 34.12C9.35 34.12 7.1 33.64 5.8 32.66C4.52 31.7 4 30.04 4.24 27.7L4.76 22.72C4.85 21.84 4.7 21.14 4.31 20.65C3.93 20.15 3.36 19.8 2.6 19.6C1.85 19.39 0.98 19.29 0 19.29L0 14.83C0.97 14.83 1.83 14.73 2.59 14.53C3.34 14.33 3.91 13.97 4.31 13.47C4.7 12.97 4.85 12.28 4.76 11.4L4.24 6.45C3.98 4.06 4.51 2.39 5.8 1.44C7.1 0.48 9.35 0 12.55 0Z" fill="url(#paint_linear_2_5841_0)" fill-opacity="1.000000" fill-rule="nonzero"/>
		<path id="Vector" d="M27.63 4.5C30.5 4.5 32.67 5.62 34.13 7.85C35.61 10.07 36.34 13.16 36.34 17.13C36.34 21.11 35.61 24.23 34.13 26.48C32.67 28.72 30.5 29.84 27.63 29.84C24.73 29.84 22.55 28.72 21.09 26.48C19.64 24.23 18.91 21.11 18.91 17.13C18.91 13.16 19.64 10.07 21.09 7.85C22.55 5.62 24.73 4.5 27.63 4.5ZM27.63 8.49C26.4 8.49 25.5 9.15 24.93 10.48C24.36 11.79 24.08 14.01 24.08 17.13C24.08 18.15 24.1 19.06 24.13 19.86C24.17 20.65 24.22 21.35 24.29 21.97L30.17 9.66C29.89 9.22 29.54 8.92 29.12 8.75C28.72 8.58 28.22 8.49 27.63 8.49ZM31.14 17.13C31.14 15.79 31.11 14.67 31.05 13.75L25.51 25.23C25.76 25.47 26.06 25.64 26.41 25.73C26.77 25.82 27.18 25.87 27.63 25.87C28.45 25.87 29.12 25.59 29.63 25.03C30.15 24.48 30.53 23.56 30.78 22.28C31.02 20.99 31.14 19.28 31.14 17.13Z" fill="url(#paint_linear_2_5842_0)" fill-opacity="1.000000" fill-rule="nonzero"/>
		<path id="Vector" d="M48.5 4.5C51.37 4.5 53.54 5.62 55 7.85C56.47 10.07 57.21 13.16 57.21 17.13C57.21 21.11 56.47 24.23 55 26.48C53.54 28.72 51.37 29.84 48.5 29.84C45.6 29.84 43.42 28.72 41.96 26.48C40.51 24.23 39.78 21.11 39.78 17.13C39.78 13.16 40.51 10.07 41.96 7.85C43.42 5.62 45.6 4.5 48.5 4.5ZM48.5 8.49C47.27 8.49 46.37 9.15 45.8 10.48C45.23 11.79 44.95 14.01 44.95 17.13C44.95 18.15 44.96 19.06 45 19.86C45.03 20.65 45.09 21.35 45.16 21.97L51.03 9.66C50.76 9.22 50.41 8.92 49.99 8.75C49.59 8.58 49.09 8.49 48.5 8.49ZM52.01 17.13C52.01 15.79 51.98 14.67 51.92 13.75L46.37 25.23C46.63 25.47 46.93 25.64 47.28 25.73C47.64 25.82 48.04 25.87 48.5 25.87C49.32 25.87 49.99 25.59 50.5 25.03C51.02 24.48 51.4 23.56 51.64 22.28C51.89 20.99 52.01 19.28 52.01 17.13Z" fill="url(#paint_linear_2_5843_0)" fill-opacity="1.000000" fill-rule="nonzero"/>
		<path id="Vector" d="M68.11 29.8L62.89 28.19L71.88 9.26L61.29 9.26L61.29 5.11L77.45 5.11L77.45 8.84L68.11 29.8Z" fill="url(#paint_linear_2_5844_0)" fill-opacity="1.000000" fill-rule="nonzero"/>
		<path id="Vector" d="M84.44 0C87.64 0 89.88 0.48 91.17 1.44C92.47 2.4 92.99 4.06 92.75 6.42L92.23 11.4C92.14 12.28 92.29 12.97 92.68 13.47C93.08 13.97 93.64 14.33 94.39 14.53C95.14 14.73 96.01 14.83 97 14.83L97 19.29C96.02 19.29 95.16 19.39 94.4 19.6C93.65 19.8 93.08 20.15 92.68 20.65C92.29 21.14 92.14 21.84 92.23 22.72L92.75 27.66C93.02 30.04 92.5 31.71 91.19 32.68C89.89 33.64 87.64 34.12 84.44 34.12L84.44 30.29C85.5 30.29 86.33 30.14 86.92 29.84C87.52 29.55 87.76 28.96 87.67 28.08L87.13 22.94C86.99 21.63 87.13 20.58 87.55 19.79C87.98 18.99 88.63 18.38 89.5 17.96C90.37 17.53 91.39 17.23 92.56 17.06C91.32 16.87 90.26 16.57 89.39 16.15C88.54 15.74 87.91 15.13 87.52 14.34C87.12 13.54 86.99 12.49 87.13 11.17L87.67 6.04C87.76 5.15 87.51 4.57 86.91 4.28C86.32 3.98 85.49 3.83 84.44 3.83L84.44 0Z" fill="url(#paint_linear_2_5845_0)" fill-opacity="1.000000" fill-rule="nonzero"/>
		<path id="Vector" d="M12.27 42.16C13.24 42.16 14.02 42.4 14.61 42.88C15.2 43.36 15.63 44.04 15.9 44.92C16.18 45.79 16.32 46.83 16.32 48.04C16.32 49.18 16.15 50.2 15.82 51.1C15.48 51.99 15 52.7 14.37 53.21C13.73 53.72 12.97 53.97 12.06 53.97C10.98 53.97 10.11 53.59 9.43 52.81L9.43 57.9L6.13 58.25L6.13 42.52L9.06 42.52L9.2 43.77C9.65 43.19 10.15 42.78 10.68 42.53C11.22 42.28 11.75 42.16 12.27 42.16ZM11.25 44.59C10.86 44.59 10.53 44.71 10.23 44.94C9.94 45.17 9.67 45.48 9.43 45.88L9.43 50.56C9.66 50.9 9.9 51.15 10.15 51.31C10.41 51.47 10.71 51.55 11.06 51.55C11.64 51.55 12.1 51.28 12.43 50.76C12.75 50.22 12.92 49.33 12.92 48.08C12.92 47.16 12.85 46.45 12.72 45.95C12.59 45.44 12.39 45.09 12.14 44.89C11.89 44.69 11.59 44.59 11.25 44.59Z" fill="url(#paint_linear_2_5846_0)" fill-opacity="1.000000" fill-rule="nonzero"/>
		<path id="Vector" d="M27.98 50.42C27.98 50.84 28.04 51.14 28.15 51.33C28.27 51.52 28.46 51.66 28.71 51.76L28.04 53.93C27.38 53.87 26.83 53.73 26.38 53.5C25.93 53.27 25.58 52.93 25.32 52.47C24.9 52.98 24.35 53.36 23.69 53.61C23.03 53.85 22.36 53.97 21.67 53.97C20.53 53.97 19.62 53.65 18.93 53C18.26 52.35 17.92 51.51 17.92 50.48C17.92 49.28 18.39 48.35 19.33 47.69C20.28 47.04 21.61 46.71 23.32 46.71L24.81 46.71L24.81 46.29C24.81 45.16 24.08 44.59 22.62 44.59C22.26 44.59 21.81 44.64 21.25 44.75C20.7 44.85 20.14 44.99 19.58 45.18L18.82 42.98C19.54 42.71 20.28 42.51 21.05 42.37C21.83 42.23 22.53 42.16 23.14 42.16C24.79 42.16 26.01 42.5 26.79 43.17C27.59 43.84 27.98 44.81 27.98 46.07L27.98 50.42ZM22.81 51.61C23.16 51.61 23.53 51.51 23.92 51.3C24.31 51.08 24.61 50.78 24.81 50.39L24.81 48.59L24 48.59C23.08 48.59 22.4 48.74 21.97 49.02C21.54 49.3 21.32 49.71 21.32 50.25C21.32 50.68 21.45 51.01 21.71 51.26C21.98 51.49 22.34 51.61 22.81 51.61Z" fill="url(#paint_linear_2_5847_0)" fill-opacity="1.000000" fill-rule="nonzero"/>
		<path id="Vector" d="M41.63 42.52L37.94 53.62L34.05 53.62L30.32 42.52L33.88 42.52L36.04 51.09L38.29 42.52L41.63 42.52Z" fill="url(#paint_linear_2_5848_0)" fill-opacity="1.000000" fill-rule="nonzero"/>
		<path id="Vector" d="M53.02 50.42C53.02 50.84 53.08 51.14 53.19 51.33C53.31 51.52 53.5 51.66 53.75 51.76L53.08 53.93C52.42 53.87 51.87 53.73 51.42 53.5C50.97 53.27 50.62 52.93 50.36 52.47C49.94 52.98 49.4 53.36 48.73 53.61C48.07 53.85 47.4 53.97 46.71 53.97C45.57 53.97 44.66 53.65 43.98 53C43.3 52.35 42.96 51.51 42.96 50.48C42.96 49.28 43.43 48.35 44.37 47.69C45.32 47.04 46.65 46.71 48.36 46.71L49.85 46.71L49.85 46.29C49.85 45.16 49.12 44.59 47.66 44.59C47.3 44.59 46.85 44.64 46.29 44.75C45.74 44.85 45.18 44.99 44.62 45.18L43.86 42.98C44.58 42.71 45.32 42.51 46.09 42.37C46.87 42.23 47.57 42.16 48.18 42.16C49.83 42.16 51.05 42.5 51.83 43.17C52.63 43.84 53.02 44.81 53.02 46.07L53.02 50.42ZM47.85 51.61C48.2 51.61 48.57 51.51 48.96 51.3C49.35 51.08 49.65 50.78 49.85 50.39L49.85 48.59L49.04 48.59C48.12 48.59 47.44 48.74 47.01 49.02C46.58 49.3 46.37 49.71 46.37 50.25C46.37 50.68 46.49 51.01 46.75 51.26C47.02 51.49 47.38 51.61 47.85 51.61Z" fill="url(#paint_linear_2_5849_0)" fill-opacity="1.000000" fill-rule="nonzero"/>
		<path id="Vector" d="M56.21 53.62L56.21 42.52L59.09 42.52L59.32 43.81C59.82 43.25 60.34 42.84 60.89 42.56C61.44 42.29 62.07 42.16 62.77 42.16C63.71 42.16 64.46 42.45 65 43.02C65.54 43.6 65.82 44.42 65.82 45.47L65.82 53.62L62.52 53.62L62.52 46.42C62.52 45.74 62.44 45.26 62.29 45C62.14 44.73 61.86 44.59 61.45 44.59C61.1 44.59 60.77 44.7 60.45 44.93C60.14 45.15 59.82 45.46 59.51 45.86L59.51 53.62L56.21 53.62Z" fill="url(#paint_linear_2_5850_0)" fill-opacity="1.000000" fill-rule="nonzero"/>
		<path id="Vector" d="M76.93 42.16C77.71 42.16 78.29 42.41 78.67 42.93C79.05 43.44 79.24 44.26 79.24 45.41L79.24 53.62L76.41 53.62L76.41 45.78C76.41 45.39 76.38 45.12 76.3 44.96C76.23 44.8 76.08 44.72 75.86 44.72C75.69 44.72 75.51 44.77 75.32 44.87C75.14 44.97 74.94 45.16 74.71 45.44L74.71 53.62L72.4 53.62L72.4 45.78C72.4 45.39 72.36 45.12 72.28 44.96C72.21 44.8 72.07 44.72 71.84 44.72C71.67 44.72 71.49 44.77 71.3 44.87C71.12 44.97 70.92 45.16 70.7 45.44L70.7 53.62L67.83 53.62L67.83 42.52L70.25 42.52L70.47 43.6C70.81 43.13 71.17 42.77 71.52 42.52C71.88 42.28 72.3 42.16 72.78 42.16C73.2 42.16 73.56 42.27 73.85 42.48C74.15 42.69 74.36 43.02 74.48 43.47C74.82 43.08 75.19 42.77 75.59 42.52C75.99 42.28 76.44 42.16 76.93 42.16Z" fill="url(#paint_linear_2_5851_0)" fill-opacity="1.000000" fill-rule="nonzero"/>
		<path id="Vector" d="M91.1 40.75L91.87 43.17C91.48 43.32 91.02 43.44 90.5 43.5C89.98 43.57 89.37 43.61 88.67 43.61C89.37 43.91 89.9 44.28 90.26 44.73C90.63 45.17 90.81 45.74 90.81 46.46C90.81 47.18 90.62 47.82 90.24 48.38C89.86 48.94 89.31 49.38 88.61 49.7C87.91 50.02 87.08 50.18 86.12 50.18C85.66 50.18 85.23 50.14 84.83 50.06C84.72 50.12 84.63 50.21 84.56 50.33C84.5 50.45 84.47 50.57 84.47 50.69C84.47 50.87 84.54 51.02 84.68 51.16C84.82 51.3 85.16 51.37 85.69 51.37L87.51 51.37C88.37 51.37 89.11 51.51 89.74 51.79C90.37 52.07 90.86 52.45 91.21 52.93C91.56 53.41 91.73 53.96 91.73 54.58C91.73 55.71 91.23 56.61 90.24 57.26C89.24 57.92 87.77 58.25 85.8 58.25C84.39 58.25 83.29 58.1 82.51 57.81C81.73 57.52 81.2 57.11 80.89 56.57C80.59 56.04 80.44 55.41 80.44 54.68L83.36 54.68C83.36 55 83.42 55.26 83.55 55.47C83.68 55.68 83.93 55.83 84.29 55.93C84.66 56.02 85.19 56.07 85.89 56.07C86.59 56.07 87.13 56.02 87.5 55.91C87.86 55.79 88.11 55.64 88.25 55.45C88.39 55.26 88.46 55.05 88.46 54.81C88.46 54.48 88.33 54.22 88.07 54.01C87.81 53.81 87.4 53.71 86.85 53.71L85.08 53.71C83.89 53.71 83.02 53.49 82.48 53.05C81.93 52.61 81.66 52.09 81.66 51.5C81.66 51.09 81.77 50.7 81.98 50.33C82.21 49.96 82.52 49.65 82.91 49.4C82.2 49.02 81.7 48.58 81.39 48.07C81.08 47.55 80.93 46.94 80.93 46.22C80.93 45.39 81.14 44.67 81.57 44.07C81.99 43.46 82.58 43 83.32 42.67C84.07 42.34 84.93 42.18 85.89 42.18C86.72 42.19 87.44 42.14 88.05 42.01C88.66 41.88 89.21 41.7 89.7 41.48C90.18 41.25 90.65 41 91.1 40.75ZM85.97 44.32C85.45 44.32 85.04 44.49 84.73 44.82C84.42 45.15 84.27 45.6 84.27 46.18C84.27 46.79 84.43 47.26 84.74 47.59C85.05 47.92 85.46 48.08 85.97 48.08C87.1 48.08 87.66 47.43 87.66 46.14C87.66 44.93 87.1 44.32 85.97 44.32Z" fill="url(#paint_linear_2_5852_0)" fill-opacity="1.000000" fill-rule="nonzero"/>
	</g>
	</g>
	<!-- decor -->

	<g id="linkChain">
	<defs>
		<clipPath id="clip2_5946">
			<rect id="akar-icons:link-chain" rx="0.000000" width="19.000000" height="19.000000" transform="translate(0.500000 0.500000)" fill="white" fill-opacity="0"/>
		</clipPath>
	</defs>
	<rect id="akar-icons:link-chain" rx="0.000000" width="19.000000" height="19.000000" transform="translate(0.500000 0.500000)" fill="#FFFFFF" fill-opacity="0"/>
	<g clip-path="url(#clip2_5946)">
		<path id="Vector" d="M11.28 8.71C10.6 8.03 9.67 7.64 8.71 7.64C7.74 7.64 6.82 8.03 6.14 8.71L3.56 11.28C2.88 11.96 2.49 12.89 2.49 13.86C2.49 14.82 2.88 15.75 3.56 16.43C4.24 17.11 5.17 17.5 6.13 17.5C7.1 17.5 8.03 17.11 8.71 16.43L10 15.14" stroke="#FCFCFC" stroke-opacity="1.000000" stroke-width="1.666667" stroke-linejoin="round" stroke-linecap="round"/>
		<path id="Vector" d="M8.71 11.28C9.39 11.96 10.32 12.35 11.28 12.35C12.25 12.35 13.17 11.96 13.86 11.28L16.43 8.71C17.11 8.03 17.5 7.1 17.5 6.13C17.5 5.17 17.11 4.24 16.43 3.56C15.75 2.88 14.82 2.49 13.86 2.49C12.89 2.49 11.96 2.88 11.28 3.56L10 4.85" stroke="#FCFCFC" stroke-opacity="1.000000" stroke-width="1.666667" stroke-linejoin="round" stroke-linecap="round"/>
	</g>
	</g>

	<g id="faPhone">
	<defs/>
	<path id="fa-phone" d="M9 0L0 0L0 12.59L9 12.59L9 0ZM4.5 5.48L1.44 0.9L7.55 0.9L4.5 5.48ZM3.95 6.29L0.9 10.88L0.9 1.7L3.95 6.29ZM8.09 1.7L8.09 10.88L5.04 6.29L8.09 1.7ZM4.5 7.11L7.55 11.69L1.44 11.69L4.5 7.11Z" fill="#A7A7A7" fill-opacity="1.000000" fill-rule="evenodd"/>
	</g>

	<g id="photoDecore">
	<defs>
		<linearGradient x1="807.848694" y1="470.933105" x2="807.848694" y2="905.433105" id="paint_linear_19_1818_0" gradientUnits="userSpaceOnUse">
			<stop stop-color="#FFFFFF"/>
			<stop offset="1.000000" stop-color="#FFFFFF" stop-opacity="0.000000"/>
		</linearGradient>
		<linearGradient x1="839.212952" y1="395.213135" x2="839.212952" y2="829.713135" id="paint_linear_19_1819_0" gradientUnits="userSpaceOnUse">
			<stop stop-color="#FFFFFF"/>
			<stop offset="1.000000" stop-color="#FFFFFF" stop-opacity="0.000000"/>
		</linearGradient>
		<linearGradient x1="849.910706" y1="313.955566" x2="849.910706" y2="748.455566" id="paint_linear_19_1820_0" gradientUnits="userSpaceOnUse">
			<stop stop-color="#FFFFFF"/>
			<stop offset="1.000000" stop-color="#FFFFFF" stop-opacity="0.000000"/>
		</linearGradient>
		<linearGradient x1="839.212952" y1="232.697754" x2="839.212952" y2="667.197754" id="paint_linear_19_1821_0" gradientUnits="userSpaceOnUse">
			<stop stop-color="#FFFFFF"/>
			<stop offset="1.000000" stop-color="#FFFFFF" stop-opacity="0.000000"/>
		</linearGradient>
		<linearGradient x1="807.848694" y1="156.977783" x2="807.848694" y2="591.477783" id="paint_linear_19_1822_0" gradientUnits="userSpaceOnUse">
			<stop stop-color="#FFFFFF"/>
			<stop offset="1.000000" stop-color="#FFFFFF" stop-opacity="0.000000"/>
		</linearGradient>
	</defs>
	<g opacity="0.250000">
		<rect id="Rectangle 17" x="585.236389" y="470.579590" width="443.000000" height="443.000000" transform="rotate(165 585.236389 470.579590)" stroke="url(#paint_linear_19_1818_0)" stroke-opacity="0.500000" stroke-width="1.000000"/>
		<rect id="Rectangle 19" x="616.530029" y="395.030029" width="443.000000" height="443.000000" transform="rotate(150 616.530029 395.030029)" stroke="url(#paint_linear_19_1819_0)" stroke-opacity="0.500000" stroke-width="1.000000"/>
		<rect id="Rectangle 20" x="627.203613" y="313.955566" width="443.000000" height="443.000000" transform="rotate(135 627.203613 313.955566)" stroke="url(#paint_linear_19_1820_0)" stroke-opacity="0.500000" stroke-width="1.000000"/>
		<rect id="Rectangle 21" x="616.530029" y="232.880859" width="443.000000" height="443.000000" transform="rotate(120 616.530029 232.880859)" stroke="url(#paint_linear_19_1821_0)" stroke-opacity="0.500000" stroke-width="1.000000"/>
		<rect id="Rectangle 22" x="585.236389" y="157.331299" width="443.000000" height="443.000000" transform="rotate(105 585.236389 157.331299)" stroke="url(#paint_linear_19_1822_0)" stroke-opacity="0.500000" stroke-width="1.000000"/>
	</g>
	</g>
	
</svg>
